<?xml version="1.0" encoding="UTF-8" standalone="no"?>
<!-- Created with Inkscape (http://www.inkscape.org/) -->

<svg
   xmlns:dc="http://purl.org/dc/elements/1.1/"
   xmlns:cc="http://creativecommons.org/ns#"
   xmlns:rdf="http://www.w3.org/1999/02/22-rdf-syntax-ns#"
   xmlns:svg="http://www.w3.org/2000/svg"
   xmlns="http://www.w3.org/2000/svg"
   xmlns:xlink="http://www.w3.org/1999/xlink"
   xmlns:sodipodi="http://sodipodi.sourceforge.net/DTD/sodipodi-0.dtd"
   xmlns:inkscape="http://www.inkscape.org/namespaces/inkscape"
   width="1024"
   height="500"
   viewBox="0 0 1024 500.00001"
   id="svg2"
   version="1.1"
   inkscape:version="0.91 r13725"
   sodipodi:docname="evolve-feature-alternate.svg"
   inkscape:export-filename="/home/mitchell/code/Android/Evolve-Workout-Logger/promo/graphics/evolve-feature-alternate.svg.png"
   inkscape:export-xdpi="90"
   inkscape:export-ydpi="90">
  <defs
     id="defs4">
    <linearGradient
       inkscape:collect="always"
       id="linearGradient4323">
      <stop
         style="stop-color:#333333;stop-opacity:1"
         offset="0"
         id="stop4325" />
      <stop
         style="stop-color:#808080;stop-opacity:0"
         offset="1"
         id="stop4327" />
    </linearGradient>
    <linearGradient
       inkscape:collect="always"
       id="linearGradient4313">
      <stop
         style="stop-color:#f9f9f9;stop-opacity:1;"
         offset="0"
         id="stop4315" />
      <stop
         style="stop-color:#793500;stop-opacity:1"
         offset="1"
         id="stop4317" />
    </linearGradient>
    <linearGradient
       inkscape:collect="always"
       id="linearGradient4199">
      <stop
         style="stop-color:#76ff03;stop-opacity:1;"
         offset="0"
         id="stop4201" />
      <stop
         style="stop-color:#ffffff;stop-opacity:1"
         offset="1"
         id="stop4203" />
    </linearGradient>
    <linearGradient
       inkscape:collect="always"
       id="linearGradient4191">
      <stop
         style="stop-color:#76ff03;stop-opacity:1;"
         offset="0"
         id="stop4193" />
      <stop
         style="stop-color:#005903;stop-opacity:1"
         offset="1"
         id="stop4195" />
    </linearGradient>
    <linearGradient
       inkscape:collect="always"
       id="linearGradient4138">
      <stop
         style="stop-color:#ffe0b2;stop-opacity:1"
         offset="0"
         id="stop4140" />
      <stop
         style="stop-color:#ef6c00;stop-opacity:1"
         offset="1"
         id="stop4142" />
    </linearGradient>
    <radialGradient
       inkscape:collect="always"
       xlink:href="#linearGradient4138"
       id="radialGradient4146"
       cx="507.96219"
       cy="674.12531"
       fx="507.96219"
       fy="674.12531"
       r="528.0989"
       gradientTransform="matrix(0.97774371,-0.00331252,0.00278115,0.82089804,9.1638656,145.37208)"
       gradientUnits="userSpaceOnUse" />
    <linearGradient
       inkscape:collect="always"
       xlink:href="#linearGradient4191"
       id="linearGradient4197"
       x1="269.56039"
       y1="68.657776"
       x2="270.42776"
       y2="18.657145"
       gradientUnits="userSpaceOnUse" />
    <linearGradient
       inkscape:collect="always"
       xlink:href="#linearGradient4199"
       id="linearGradient4205"
       x1="342.83575"
       y1="410.69843"
       x2="342.83575"
       y2="437.73831"
       gradientUnits="userSpaceOnUse" />
    <linearGradient
       inkscape:collect="always"
       xlink:href="#linearGradient4313"
       id="linearGradient4319"
       x1="533.11951"
       y1="975.48846"
       x2="533.11951"
       y2="1181.3868"
       gradientUnits="userSpaceOnUse" />
    <radialGradient
       inkscape:collect="always"
       xlink:href="#linearGradient4323"
       id="radialGradient4331"
       cx="521.27075"
       cy="1108.431"
       fx="521.27075"
       fy="1108.431"
       r="15.36"
       gradientTransform="matrix(2.835467,0.00572662,-0.00268809,3.4476613,-960.50648,-2754.4644)"
       gradientUnits="userSpaceOnUse" />
  </defs>
  <sodipodi:namedview
     id="base"
     pagecolor="#ffffff"
     bordercolor="#666666"
     borderopacity="1.0"
     inkscape:pageopacity="0.0"
     inkscape:pageshadow="2"
     inkscape:zoom="1.171875"
     inkscape:cx="512"
     inkscape:cy="255.98997"
     inkscape:document-units="px"
     inkscape:current-layer="layer1"
     showgrid="false"
     units="px"
     inkscape:window-width="1855"
     inkscape:window-height="1056"
     inkscape:window-x="65"
     inkscape:window-y="24"
     inkscape:window-maximized="1" />
  <metadata
     id="metadata7">
    <rdf:RDF>
      <cc:Work
         rdf:about="">
        <dc:format>image/svg+xml</dc:format>
        <dc:type
           rdf:resource="http://purl.org/dc/dcmitype/StillImage" />
        <dc:title />
      </cc:Work>
    </rdf:RDF>
  </metadata>
  <g
     inkscape:label="Layer 1"
     inkscape:groupmode="layer"
     id="layer1"
     transform="translate(0,-552.36216)">
    <rect
       style="opacity:1;fill:url(#radialGradient4146);fill-opacity:1;stroke:#000000;stroke-width:32.23302078;stroke-miterlimit:4;stroke-dasharray:none;stroke-opacity:0"
       id="rect4136"
       width="1023.9648"
       height="500.17365"
       x="0.0040053451"
       y="552.11609" />
    <ellipse
       style="opacity:1;fill:url(#radialGradient4331);fill-opacity:1;stroke:none;stroke-width:1.89999998;stroke-miterlimit:4;stroke-dasharray:none;stroke-opacity:1"
       id="path4321"
       cx="514.98669"
       cy="1053.5352"
       rx="15.36"
       ry="39.999668" />
    <g
       id="g4295"
       transform="matrix(0.92935531,0,0,0.9241646,23.658342,32.043395)">
      <rect
         y="952.48383"
         x="213.35216"
         height="103.21306"
         width="620.25787"
         id="rect4247"
         style="opacity:1;fill:#150626;fill-opacity:1;stroke:#1a1a1a;stroke-width:1.66683567;stroke-miterlimit:4;stroke-dasharray:none;stroke-opacity:1" />
      <rect
         style="opacity:1;fill:#150640;fill-opacity:1;stroke:#1a1a1a;stroke-width:1.55750656;stroke-miterlimit:4;stroke-dasharray:none;stroke-opacity:1"
         id="rect4259"
         width="540.98688"
         height="103.32238"
         x="256.20578"
         y="817.26807" />
      <rect
         y="679.91412"
         x="281.90338"
         height="103.41716"
         width="476.71924"
         id="rect4261"
         style="opacity:1;fill:#ececec;fill-opacity:1;stroke:#1a1a1a;stroke-width:1.46273923;stroke-miterlimit:4;stroke-dasharray:none;stroke-opacity:1" />
      <rect
         style="opacity:1;fill:#ececec;fill-opacity:1;stroke:#1a1a1a;stroke-width:1.38733339;stroke-miterlimit:4;stroke-dasharray:none;stroke-opacity:1"
         id="rect4263"
         width="428.52283"
         height="103.49256"
         x="303.31982"
         y="547.93347" />
      <path
         inkscape:connector-curvature="0"
         id="path4265"
         d="m 255.62074,919.62142 -41.71852,31.85778 619.70963,0 -35.65037,-31.85778 z"
         style="fill:none;fill-rule:evenodd;stroke:#000000;stroke-width:1px;stroke-linecap:butt;stroke-linejoin:miter;stroke-opacity:1" />
      <path
         inkscape:connector-curvature="0"
         id="path4267"
         d="m 256.91337,816.36658 25.74497,-34.32663 475.74563,1.07271 37.54475,34.32663 z"
         style="fill:none;fill-rule:evenodd;stroke:#000000;stroke-width:1px;stroke-linecap:butt;stroke-linejoin:miter;stroke-opacity:1" />
      <path
         inkscape:connector-curvature="0"
         id="path4269"
         d="m 281.58563,678.52371 21.9905,-27.35403 428.01016,0.53635 25.74498,27.35403 z"
         style="fill:none;fill-rule:evenodd;stroke:#000000;stroke-width:1px;stroke-linecap:butt;stroke-linejoin:miter;stroke-opacity:1" />
      <path
         transform="translate(0,552.36216)"
         inkscape:connector-curvature="0"
         id="path4271"
         d="m 445.14385,229.14281 -162.24696,-0.27512 0,-49.87743 0,-49.87742 237.06828,0 237.06829,0 0,50.41724 0,50.41723 -74.82132,-0.26469 c -41.15173,-0.14558 -147.83246,-0.38849 -237.06829,-0.53981 z"
         style="opacity:1;fill:#15065d;fill-opacity:1;stroke:#1a1a1a;stroke-width:2.03814363;stroke-miterlimit:4;stroke-dasharray:none;stroke-opacity:1" />
      <path
         transform="translate(0,552.36216)"
         inkscape:connector-curvature="0"
         id="path4273"
         d="m 304.35103,47.587095 0,-50.4172372 212.93238,0 212.93237,0 0,50.4172372 0,50.417237 -212.93237,0 -212.93238,0 0,-50.417237 z"
         style="opacity:1;fill:#151411;fill-opacity:1;stroke:#1a1a1a;stroke-width:2.03814363;stroke-miterlimit:4;stroke-dasharray:none;stroke-opacity:1" />
      <path
         transform="translate(0,552.36216)"
         inkscape:connector-curvature="0"
         id="path4275"
         d="m 458.55269,228.0701 -174.58309,-0.27464 0,-48.80496 0,-48.80495 235.99557,0 235.99558,0 0,49.34453 0,49.34453 -61.41248,-0.26494 C 660.7714,228.46396 554.57339,228.22115 458.55269,228.0701 Z"
         style="opacity:1;fill:#151411;fill-opacity:1;stroke:#1a1a1a;stroke-width:2.03814363;stroke-miterlimit:4;stroke-dasharray:none;stroke-opacity:1" />
      <g
         transform="matrix(2.989075,0,0,2.2161778,-258.19778,605.11556)"
         style="font-style:normal;font-variant:normal;font-weight:normal;font-stretch:normal;font-size:39.99965286px;line-height:125%;font-family:'Raider Crusader Shift Up';-inkscape-font-specification:'Raider Crusader Shift Up, Normal';text-align:start;letter-spacing:0px;word-spacing:0px;writing-mode:lr-tb;text-anchor:start;fill:url(#linearGradient4197);fill-opacity:1;stroke:none;stroke-width:1px;stroke-linecap:butt;stroke-linejoin:miter;stroke-opacity:1"
         id="flowRoot4229">
        <path
           d="m 216.45786,38.8385 -21.59982,0 2.51998,4.919957 -9.27992,30.319737 17.59985,0 3.07997,-10.119912 -7.27993,0 -0.99999,3.319971 -2.99998,0 2.31998,-7.639933 2.95998,0 8.47992,-6.799941 -9.35992,0 2.19998,-7.199938 2.99998,0 -0.99999,3.279972 7.27993,0 3.07998,-10.079913 z"
           id="path4381"
           inkscape:connector-curvature="0"
           style="fill:url(#linearGradient4197);fill-opacity:1" />
        <path
           d="m 244.27762,38.8385 -16.79986,35.239694 -12.11989,0 4.71996,-35.239694 7.91993,0 -3.79997,25.279781 -0.04,0.959991 9.95991,-21.479813 -2.35998,-4.759959 12.5199,0 z"
           id="path4384"
           inkscape:connector-curvature="0"
           style="fill:url(#linearGradient4197);fill-opacity:1" />
        <path
           d="m 237.25143,71.758214 q -0.04,0.04 -0.04,0.279998 0,0.599995 0.44,1.319988 0.43999,0.719994 1.03999,0.719994 l 17.59984,0 10.07992,-32.919714 q 0.04,-0.04 0.04,-0.279998 0,-0.279997 -0.16,-0.639994 -0.12,-0.359997 -0.32,-0.679994 -0.2,-0.319997 -0.48,-0.519996 -0.27999,-0.199998 -0.55999,-0.199998 l -17.59985,0 -10.03991,32.919714 z m 15.23987,-26.119773 5.19995,0 -6.59994,21.639812 -5.19996,0 6.59995,-21.639812 z"
           id="path4386"
           inkscape:connector-curvature="0"
           style="fill:url(#linearGradient4197);fill-opacity:1" />
        <path
           d="m 267.90429,38.8385 2.51997,4.919957 -9.27992,30.319737 17.59985,0 3.07998,-10.119912 -7.27994,0 -0.99999,3.319971 -2.99998,0 8.67993,-28.439753 -11.3199,0 z"
           id="path4388"
           inkscape:connector-curvature="0"
           style="fill:url(#linearGradient4197);fill-opacity:1" />
        <path
           d="m 313.53483,38.8385 -16.79985,35.239694 -12.1199,0 4.71996,-35.239694 7.91993,0 -3.79997,25.279781 -0.04,0.959991 9.95992,-21.479813 -2.35998,-4.759959 12.51989,0 z"
           id="path4390"
           inkscape:connector-curvature="0"
           style="fill:url(#linearGradient4197);fill-opacity:1" />
        <path
           d="m 334.97245,38.8385 -21.59981,0 2.51998,4.919957 -9.27992,30.319737 17.59985,0 3.07997,-10.119912 -7.27994,0 -0.99999,3.319971 -2.99997,0 2.31998,-7.639933 2.95997,0 8.47993,-6.799941 -9.35992,0 2.19998,-7.199938 2.99997,0 -0.99999,3.279972 7.27994,0 3.07997,-10.079913 z"
           id="path4392"
           inkscape:connector-curvature="0"
           style="fill:url(#linearGradient4197);fill-opacity:1" />
      </g>
      <path
         transform="translate(0,552.36216)"
         inkscape:connector-curvature="0"
         id="path4277"
         d="m 257.15192,315.76179 0,-50.41934 269.51767,0.27028 269.51768,0.27028 0.27879,50.14906 0.27878,50.14906 -269.79646,0 -269.79646,0 0,-50.41934 z"
         style="opacity:1;fill:#151411;fill-opacity:1;stroke:#1a1a1a;stroke-width:2.03814363;stroke-miterlimit:4;stroke-dasharray:none;stroke-opacity:1" />
      <flowRoot
         transform="matrix(2.0118057,0,0,2.555243,-159.03327,-190.47616)"
         style="font-style:normal;font-variant:normal;font-weight:normal;font-stretch:normal;font-size:40.00003815px;line-height:125%;font-family:'American Captain';-inkscape-font-specification:'American Captain, Normal';text-align:start;letter-spacing:0px;word-spacing:0px;writing-mode:lr-tb;text-anchor:start;fill:url(#linearGradient4205);fill-opacity:1;stroke:none;stroke-width:1px;stroke-linecap:butt;stroke-linejoin:miter;stroke-opacity:1"
         id="flowRoot4237"
         xml:space="preserve"><flowRegion
           id="flowRegion4239"
           style="fill-opacity:1;fill:url(#linearGradient4205)"><rect
             style="font-style:normal;font-variant:normal;font-weight:normal;font-stretch:normal;font-size:40.00003815px;line-height:125%;font-family:'American Captain';-inkscape-font-specification:'American Captain, Normal';text-align:start;writing-mode:lr-tb;text-anchor:start;fill:url(#linearGradient4205);fill-opacity:1"
             y="390.58386"
             x="224.1958"
             height="93.325523"
             width="588.91626"
             id="rect4241" /></flowRegion><flowPara
           id="flowPara4243"
           style="fill-opacity:1;fill:url(#linearGradient4205)">Workout Logger</flowPara></flowRoot>      <path
         transform="translate(0,552.36216)"
         inkscape:connector-curvature="0"
         id="path4279"
         d="m 214.24363,451.46135 0,-50.95359 309.47602,0 309.47602,0 0,50.95359 0,50.95359 -309.47602,0 -309.47602,0 0,-50.95359 z"
         style="opacity:1;fill:#151411;fill-opacity:1;stroke:#1a1a1a;stroke-width:2.03814363;stroke-miterlimit:4;stroke-dasharray:none;stroke-opacity:1" />
    </g>
    <g
       id="g4340"
       style="fill:url(#linearGradient4319);fill-opacity:1"
       transform="matrix(1.2368896,0,0,1.2368896,-144.71166,-246.68007)">
      <path
         sodipodi:nodetypes="ssssss"
         inkscape:connector-curvature="0"
         id="path4324"
         d="m 544.14987,1024.272 c 0,8.6215 -2.12024,15.6106 -4.3848,15.6106 -2.26458,0 -3.91074,-7.1788 -3.91074,-15.8003 0,-3.1405 -1.08382,-7.297 -0.66464,-9.7454 0.73156,-4.2731 3.32534,-5.8652 4.765,-5.8652 2.26457,0 4.19518,7.1787 4.19518,15.8003 z"
         style="opacity:1;fill:url(#linearGradient4319);fill-opacity:1;stroke:none;stroke-width:2.71898174;stroke-miterlimit:4;stroke-dasharray:none;stroke-opacity:1" />
      <path
         sodipodi:nodetypes="ssssss"
         inkscape:connector-curvature="0"
         id="path4330"
         d="m 530.14494,1023.8097 c -10e-6,8.8457 -1.75908,16.0166 -3.92901,16.0166 -2.16993,0 -3.929,-7.1709 -3.92901,-16.0166 0,-8.8458 1.75908,-16.0167 3.92901,-16.0167 1.36383,0 3.98758,1.6949 4.69208,5.9958 0.41639,2.542 -0.76307,6.7348 -0.76307,10.0209 z"
         style="opacity:1;fill:url(#linearGradient4319);fill-opacity:1;stroke:none;stroke-width:2.19482636;stroke-miterlimit:4;stroke-dasharray:none;stroke-opacity:1" />
      <path
         sodipodi:nodetypes="sssssss"
         inkscape:connector-curvature="0"
         id="path4320"
         d="m 543.57854,995.44481 c 0,3.60317 -0.63943,11.62179 -1.58767,14.50859 -1.85892,5.6593 -5.17418,4.8053 -9.07311,4.8053 -3.89998,0 -6.83676,0.4727 -8.69534,-5.1891 -0.94733,-2.8858 -1.96545,-10.5235 -1.96545,-14.12479 0,-10.66678 4.773,-19.31386 10.66079,-19.31386 5.88778,0 10.66078,8.64708 10.66078,19.31386 z"
         style="opacity:1;fill:url(#linearGradient4319);fill-opacity:1;stroke:none;stroke-width:2.09899473;stroke-miterlimit:4;stroke-dasharray:none;stroke-opacity:1" />
      <path
         sodipodi:nodetypes="sssssssss"
         inkscape:connector-curvature="0"
         id="path4318"
         d="m 543.60077,969.26191 c 0,2.97459 -0.81587,6.232 -2.7409,8.15771 -1.86512,1.86578 -4.79467,2.4466 -7.607,2.4466 -3.31139,0 -5.50097,-0.17172 -7.39505,-2.65175 -1.37484,-1.80016 -2.95286,-5.48939 -2.95286,-7.95256 0,-3.05207 0.97378,-6.44914 2.98765,-8.45789 1.85053,-1.84581 4.62355,-2.43085 7.36026,-2.43085 2.60636,0 5.36691,0.28811 7.18634,1.98224 2.17006,2.02061 3.16156,5.72085 3.16156,8.9065 z"
         style="opacity:1;fill:url(#linearGradient4319);fill-opacity:1;stroke:none;stroke-width:2.02789211;stroke-miterlimit:4;stroke-dasharray:none;stroke-opacity:1" />
      <path
         sodipodi:nodetypes="ssssssss"
         inkscape:connector-curvature="0"
         id="path4332"
         d="m 545.70689,1009.5461 c -1.40965,0.6507 -0.61764,-6.1582 -1.08241,-12.74701 -0.1684,-2.38768 -0.7934,-4.97293 -2.05278,-6.12847 -5.88341,-5.39836 -5.27741,-8.79225 -3.34568,-9.68398 1.26769,-0.58519 4.22882,0.42159 6.82234,4.19905 1.35854,1.97871 1.97307,5.43581 2.47578,8.13416 0.69294,3.71928 0.47426,6.06672 0.2713,8.80955 -0.28628,3.8679 -1.97492,6.9026 -3.08855,7.4167 z"
         style="opacity:1;fill:url(#linearGradient4319);fill-opacity:1;stroke:none;stroke-width:1.89999998;stroke-miterlimit:4;stroke-dasharray:none;stroke-opacity:1" />
      <path
         style="opacity:1;fill:url(#linearGradient4319);fill-opacity:1;stroke:none;stroke-width:1.89999998;stroke-miterlimit:4;stroke-dasharray:none;stroke-opacity:1"
         d="m 520.30422,1009.9253 c 1.40965,0.6508 0.61764,-6.1582 1.08241,-12.74694 0.1684,-2.38769 0.7934,-4.97294 2.05278,-6.12847 5.88341,-5.39839 5.27741,-8.79226 3.34568,-9.684 -1.26769,-0.58519 -4.22882,0.4216 -6.82234,4.19906 -1.35854,1.9787 -1.97307,5.43582 -2.47577,8.13416 -0.69295,3.71926 -0.47427,6.06673 -0.27131,8.80949 0.28628,3.868 1.97492,6.9027 3.08855,7.4167 z"
         id="path4362"
         inkscape:connector-curvature="0"
         sodipodi:nodetypes="ssssssss" />
    </g>
    <g
       id="g4415"
       transform="translate(-5.12,-162.98667)">
      <g
         id="g4403">
        <g
           id="g4438"
           transform="matrix(0.50472854,0,0,0.49544029,512.8255,322.70095)">
          <path
             inkscape:connector-curvature="0"
             id="path4383"
             d="m 858.45332,1142.3889 a 26.45333,26.45333 0 0 1 -26.45333,26.4533 26.45333,26.45333 0 0 1 -26.45332,-26.4533 26.45333,26.45333 0 0 1 26.45332,-26.4535 26.45333,26.45333 0 0 1 26.45333,26.4535 z"
             style="opacity:1;fill:#000000;fill-opacity:1;stroke:none;stroke-width:1.89999998;stroke-miterlimit:4;stroke-dasharray:none;stroke-opacity:1" />
          <path
             id="rect4385"
             d="m -1041.7164,1071.131 114.34663,0 0,47.7866 -114.34663,0 z"
             style="opacity:1;fill:#000000;fill-opacity:1;stroke:none;stroke-width:1.89999998;stroke-miterlimit:4;stroke-dasharray:none;stroke-opacity:1"
             transform="matrix(0.25540217,-0.9668349,0.9668349,0.25540217,0,0)"
             inkscape:connector-curvature="0" />
          <path
             sodipodi:nodetypes="ccccc"
             inkscape:connector-curvature="0"
             id="rect4387"
             d="m 621.68869,1241.8293 70.87154,-5.5237 17.85056,28.3811 -87.04,0 z"
             style="opacity:1;fill:#000000;fill-opacity:1;stroke:none;stroke-width:1.89999998;stroke-miterlimit:4;stroke-dasharray:none;stroke-opacity:1"
             transform="matrix(0.99608558,-0.08839411,0.08839411,0.99608558,0,0)" />
          <path
             sodipodi:nodetypes="ccccc"
             inkscape:connector-curvature="0"
             id="rect4389"
             d="m -1101.4268,1116.9053 63.8854,-14.0577 -9.721,25.4287 -54.3881,11.6003 z"
             inkscape:transform-center-y="-14.796825"
             inkscape:transform-center-x="19.050728"
             style="opacity:1;fill:#000000;fill-opacity:1;stroke:none;stroke-width:1.89999998;stroke-miterlimit:4;stroke-dasharray:none;stroke-opacity:1"
             transform="matrix(0.34142264,-0.93990988,0.98226399,0.18750319,0,0)" />
          <path
             sodipodi:nodetypes="ccccc"
             inkscape:connector-curvature="0"
             id="rect4391"
             d="m 1408.3909,-242.48034 79.7082,6.68521 0.1552,19.49866 -82.9483,0 z"
             style="opacity:1;fill:#000000;fill-opacity:1;stroke:none;stroke-width:1.89999998;stroke-miterlimit:4;stroke-dasharray:none;stroke-opacity:1"
             transform="matrix(0.43812869,0.89891226,-0.93844861,0.34541888,0,0)" />
          <path
             sodipodi:nodetypes="ccccc"
             inkscape:connector-curvature="0"
             id="rect4393"
             d="m -365.54886,1470.2182 69.23958,3.8944 -1.57913,17.6714 -56.53627,-9e-4 z"
             style="opacity:1;fill:#000000;fill-opacity:1;stroke:none;stroke-width:1.89999998;stroke-miterlimit:4;stroke-dasharray:none;stroke-opacity:1"
             transform="matrix(0.67403867,-0.73869606,0.74535773,0.66666472,0,0)" />
          <path
             id="rect4395"
             d="m -1015.7668,1310.2955 75.80088,0 0,28.1151 -75.80088,0 z"
             inkscape:transform-center-y="-17.615355"
             inkscape:transform-center-x="16.479516"
             style="opacity:1;fill:#000000;fill-opacity:1;stroke:none;stroke-width:1.89999998;stroke-miterlimit:4;stroke-dasharray:none;stroke-opacity:1"
             transform="matrix(0.48534219,-0.87432429,0.9404162,0.34002554,0,0)"
             inkscape:connector-curvature="0" />
          <path
             sodipodi:nodetypes="ccccc"
             inkscape:connector-curvature="0"
             id="rect4397"
             d="m 686.61955,1303.2484 83.09956,20.7835 -4.45889,19.3214 -82.4117,-12.1852 z"
             inkscape:transform-center-y="-20.048157"
             inkscape:transform-center-x="-15.292004"
             style="opacity:1;fill:#000000;fill-opacity:1;stroke:none;stroke-width:1.89999998;stroke-miterlimit:4;stroke-dasharray:none;stroke-opacity:1" />
          <path
             sodipodi:nodetypes="ccccc"
             inkscape:connector-curvature="0"
             id="rect4399"
             d="m 1293.7216,579.46356 82.2416,3.43258 -6.4408,24.68245 -75.8008,0 z"
             inkscape:transform-center-y="-14.535793"
             inkscape:transform-center-x="-19.250574"
             style="opacity:1;fill:#000000;fill-opacity:1;stroke:none;stroke-width:1.89999998;stroke-miterlimit:4;stroke-dasharray:none;stroke-opacity:1"
             transform="matrix(0.81844049,0.5745913,-0.43703024,0.89944681,0,0)" />
          <path
             id="rect4401"
             d="m 1079.4871,-1214.5568 90.8661,0 0,28.3671 -90.8661,0 z"
             inkscape:transform-center-y="18.170089"
             inkscape:transform-center-x="-19.003957"
             style="opacity:1;fill:#000000;fill-opacity:1;stroke:none;stroke-width:1.89999998;stroke-miterlimit:4;stroke-dasharray:none;stroke-opacity:1"
             transform="matrix(-0.28728406,0.95784543,-0.97294602,-0.23103258,0,0)"
             inkscape:connector-curvature="0" />
        </g>
        <g
           id="g4462"
           transform="matrix(0.51832122,0,0,0.80650456,78.258544,-11.409746)">
          <rect
             y="1165.8232"
             x="-38.400002"
             height="73.165268"
             width="20.627338"
             id="rect4450"
             style="opacity:1;fill:#000000;fill-opacity:1;stroke:none;stroke-width:1.89999998;stroke-miterlimit:4;stroke-dasharray:none;stroke-opacity:1" />
          <rect
             y="1138.1198"
             x="-10.323901"
             height="129.28232"
             width="33.805916"
             id="rect4452"
             style="opacity:1;fill:#000000;fill-opacity:1;stroke:none;stroke-width:1.89999998;stroke-miterlimit:4;stroke-dasharray:none;stroke-opacity:1" />
          <rect
             y="1185.7128"
             x="28.065866"
             height="36.937805"
             width="105.42862"
             id="rect4454"
             style="opacity:1;fill:#000000;fill-opacity:1;stroke:none;stroke-width:1.89999998;stroke-miterlimit:4;stroke-dasharray:none;stroke-opacity:1" />
          <rect
             style="opacity:1;fill:#000000;fill-opacity:1;stroke:none;stroke-width:1.89999998;stroke-miterlimit:4;stroke-dasharray:none;stroke-opacity:1"
             id="rect4458"
             width="33.805916"
             height="129.28232"
             x="139.22429"
             y="1135.9888" />
          <rect
             style="opacity:1;fill:#000000;fill-opacity:1;stroke:none;stroke-width:1.89999998;stroke-miterlimit:4;stroke-dasharray:none;stroke-opacity:1"
             id="rect4460"
             width="20.627338"
             height="73.165268"
             x="179.90599"
             y="1165.1128" />
        </g>
      </g>
    </g>
  </g>
</svg>
